<svg xmlns="http://www.w3.org/2000/svg" xmlns:xlink="http://www.w3.org/1999/xlink" width="2128" zoomAndPan="magnify" viewBox="0 0 1596 313.499995" height="418" preserveAspectRatio="xMidYMid meet" version="1.0"><defs><clipPath id="6ed6916636"><path d="M 1.269531 0 L 1593.980469 0 L 1593.980469 313 L 1.269531 313 Z M 1.269531 0 " clip-rule="nonzero"/></clipPath><clipPath id="97b168933f"><path d="M 775.734375 127.136719 L 950.953125 127.136719 L 950.953125 161.578125 L 775.734375 161.578125 Z M 775.734375 127.136719 " clip-rule="nonzero"/></clipPath></defs><g clip-path="url(#6ed6916636)"><path fill="#facf73" d="M 151.613281 0.257812 L 1594.253906 0.257812 L 1594.253906 162.085938 C 1594.253906 245.074219 1526.902344 312.425781 1443.914062 312.425781 L 1.269531 312.425781 L 1.269531 150.601562 C 1.269531 67.613281 68.625 0.257812 151.613281 0.257812 Z M 151.613281 0.257812 " fill-opacity="1" fill-rule="nonzero"/></g><g clip-path="url(#97b168933f)"><path fill="#facf73" d="M 792.269531 127.164062 L 950.953125 127.164062 L 950.953125 144.964844 C 950.953125 154.089844 943.542969 161.5 934.414062 161.5 L 775.734375 161.5 L 775.734375 143.699219 C 775.734375 134.570312 783.140625 127.164062 792.269531 127.164062 Z M 792.269531 127.164062 " fill-opacity="1" fill-rule="nonzero"/></g></svg>