<svg xmlns="http://www.w3.org/2000/svg" xmlns:xlink="http://www.w3.org/1999/xlink" width="1959" zoomAndPan="magnify" viewBox="0 0 1469.25 492.749982" height="657" preserveAspectRatio="xMidYMid meet" version="1.0"><defs><clipPath id="8df7a9bd05"><path d="M 19 0 L 1468.5 0 L 1468.5 457 L 19 457 Z M 19 0 " clip-rule="nonzero"/></clipPath><clipPath id="c525a51836"><path d="M 0 29 L 1402 29 L 1402 491.75 L 0 491.75 Z M 0 29 " clip-rule="nonzero"/></clipPath><clipPath id="204e90f43e"><path d="M 558.703125 269.6875 L 734.113281 269.6875 L 734.113281 304.171875 L 558.703125 304.171875 Z M 558.703125 269.6875 " clip-rule="nonzero"/></clipPath></defs><g clip-path="url(#8df7a9bd05)"><path fill="#facf73" d="M 1461.269531 349.9375 L 1426 311.085938 C 1442.535156 263.382812 1454.066406 233.792969 1460.589844 222.324219 L 1468.261719 168.011719 L 1459.113281 122.667969 L 1435.273438 97.375 L 1399.183594 93.898438 L 1439.648438 56.054688 L 1402.679688 73.65625 L 1325.703125 27.242188 L 1278.265625 35.339844 L 1232.472656 74.097656 L 1218.523438 35.601562 L 1221.425781 12.515625 L 1198.617188 0.304688 L 1162.480469 36.726562 L 1113.449219 52.214844 L 1136.765625 38.0625 L 1143.882812 2.207031 L 1107.59375 48.878906 L 1074.410156 53.6875 L 1077.8125 64.199219 C 1049.386719 59.839844 1029.820312 57.160156 1019.113281 56.15625 L 985.203125 74.242188 L 938.296875 80.648438 L 838.234375 60.160156 L 799.816406 76.539062 L 793.664062 83.691406 L 596.835938 56.042969 L 501.296875 47.125 C 464.25 44.0625 430.828125 42.28125 401.023438 41.789062 C 397.40625 40.9375 348.441406 42.273438 254.121094 45.792969 L 250.8125 50.605469 L 400.972656 49.035156 L 446.089844 56.664062 C 479.570312 57.238281 518.011719 60.117188 561.421875 65.304688 L 578.777344 71.226562 C 546.839844 74.34375 509.660156 74.710938 467.238281 72.324219 L 487.910156 90.859375 C 462.289062 90.117188 410.90625 87.082031 333.757812 81.753906 C 295.792969 80.046875 267.917969 79.957031 250.121094 81.480469 L 179.828125 72.222656 L 137.914062 70.300781 L 148.023438 80.589844 C 185.035156 85.617188 214.480469 88.539062 236.359375 89.351562 L 255.222656 84.902344 L 304.945312 85.835938 C 324 86.050781 356.742188 88.402344 403.171875 92.890625 C 448.054688 96.90625 533.605469 110.242188 659.820312 132.890625 L 633.6875 137.800781 L 582.6875 135.917969 C 541.953125 131.863281 459.429688 119.402344 335.121094 98.535156 C 320.742188 100.742188 288.605469 101.277344 238.714844 100.144531 C 248.492188 102.800781 270.242188 105.023438 303.964844 106.816406 L 360.710938 116.574219 L 301.921875 121.183594 L 367.789062 124.980469 C 390.210938 128.039062 421.476562 133.644531 461.582031 141.800781 L 410.859375 139.210938 L 369.90625 141.960938 L 410.648438 155.414062 L 358.6875 147.257812 L 312.941406 151.433594 L 320.9375 159.429688 L 368.28125 171.128906 L 428.929688 179.726562 L 462.394531 228.164062 C 423.515625 226.65625 389.335938 224.636719 359.851562 222.109375 C 341.835938 224.625 324.328125 226.464844 307.328125 227.625 L 368.996094 235.527344 L 390.910156 260.160156 L 363.574219 275.257812 L 349.027344 275.542969 L 397.421875 288.835938 L 341.386719 286.8125 L 405.878906 309.035156 L 394.992188 319.308594 C 365.085938 311.820312 332.992188 302.957031 298.710938 292.722656 C 315.140625 302.289062 342.566406 312.726562 380.980469 324.03125 L 381.441406 337.746094 C 363.074219 339.683594 313.269531 347.9375 232.019531 362.507812 L 186.828125 374.238281 C 182.480469 375.414062 225.128906 370.492188 314.78125 359.480469 L 310.277344 366.933594 L 164.480469 391.582031 L 138.3125 398.015625 L 189.015625 392.253906 L 218.277344 393.976562 L 163.789062 403.117188 C 125.132812 414.152344 106.851562 420.203125 108.953125 421.269531 C 205.941406 401 256.597656 391.664062 260.929688 393.269531 L 236.972656 403.339844 L 287.882812 395.253906 L 272.246094 401.296875 C 239.207031 407.019531 205.828125 410.820312 172.113281 412.707031 L 123.875 422.003906 L 19.800781 452.488281 C 71.574219 443.574219 132.929688 435.777344 203.863281 429.097656 L 251.980469 428.5 L 401.582031 416.230469 L 336.757812 430.605469 C 320.015625 433.105469 263.855469 439.390625 168.285156 449.460938 L 116.855469 456.863281 C 136.707031 457.238281 171.210938 454.550781 220.363281 448.796875 L 224.949219 455.417969 L 324.070312 435.988281 C 438.011719 421.957031 538.097656 413.074219 624.324219 409.347656 L 557.648438 426.601562 C 459.597656 436.199219 387.515625 444.398438 341.402344 451.199219 L 376.921875 449.96875 L 496.757812 438.917969 C 509.296875 438.535156 552.335938 435.507812 625.867188 429.828125 C 651.65625 430.320312 675.269531 430.160156 696.710938 429.347656 C 740.761719 425.832031 794.734375 423.292969 858.625 421.726562 C 893.757812 422.472656 930.191406 421.558594 967.925781 418.980469 L 1063.4375 418.484375 L 1109.953125 410.527344 L 1160.054688 408.890625 L 1201.039062 426.410156 C 1230.398438 417.347656 1256.214844 407.375 1278.492188 396.496094 L 1295.683594 385.351562 L 1300.496094 396.023438 L 1349.820312 421.238281 L 1388.828125 412.074219 L 1341.878906 401.574219 L 1368.234375 402.089844 L 1412.609375 408.285156 L 1447.585938 394.304688 L 1461.269531 349.9375 " fill-opacity="1" fill-rule="nonzero"/></g><g clip-path="url(#c525a51836)"><path fill="#facf73" d="M 8.558594 136.832031 L 44.808594 178.390625 C 25.429688 230.511719 12.175781 258.695312 5.054688 262.953125 L -0.128906 324.121094 L 6.980469 375.597656 L 36.773438 402.375 L 58.222656 400.457031 L 33.34375 440.066406 L 75.230469 414.277344 L 109.445312 445.699219 L 155.839844 456.859375 C 183.5 441.828125 212.65625 429.554688 243.308594 420.035156 L 224.5625 462.289062 L 244.167969 491.917969 L 285.796875 467.773438 L 319.78125 438.222656 L 323.386719 455.820312 L 310.496094 477.25 L 331.910156 453.546875 L 370 434.359375 L 370.898438 418.113281 L 420.414062 425.789062 L 428.375 431.859375 L 465.832031 414.035156 L 511.617188 406.164062 L 610.699219 426.808594 L 655.855469 403.300781 L 844.417969 430.867188 L 949.28125 440.839844 C 985.769531 443.671875 1017.949219 445.089844 1045.816406 445.09375 L 1136.648438 442.480469 L 1184.882812 438.214844 C 1118.6875 436.351562 1074.671875 436.125 1052.832031 437.53125 L 1011.285156 432.40625 C 979.019531 430.9375 939.769531 427.964844 893.539062 423.488281 L 856.554688 417.644531 L 900.203125 412.15625 L 961.253906 416.007812 L 948.414062 398.367188 L 997.707031 398.453125 C 1075.914062 404.097656 1124.203125 406.722656 1142.566406 406.328125 L 1177.375 405.308594 L 1247.363281 414.878906 L 1289.492188 416.449219 L 1270.964844 407.054688 L 1222.464844 398.78125 L 1181.390625 396.707031 L 1161.992188 402.359375 L 1116.882812 400.917969 C 1025.234375 393.867188 975.511719 388.945312 967.714844 386.152344 C 948.5625 383.464844 891.085938 373.597656 795.285156 356.5625 L 784.890625 347.644531 C 828.53125 351.8125 858.035156 353.523438 873.40625 352.773438 C 948.574219 362.992188 1020.726562 374.953125 1089.871094 388.660156 L 1118.105469 386.300781 L 1178.765625 386.625 L 1172.90625 383.441406 L 1130.816406 380.605469 L 1070.359375 371.066406 C 1087.621094 368.269531 1106.585938 366.445312 1127.257812 365.601562 L 1060.886719 361.644531 C 1036.75 358.132812 1007.753906 352.199219 973.890625 343.847656 L 1029.144531 348.167969 L 1052.859375 342.789062 L 1027.613281 330.195312 L 1091.851562 343.609375 L 1133.933594 336.554688 C 1120.507812 330.378906 1073.378906 319.285156 992.539062 303.269531 L 1002.949219 272.277344 L 953.070312 260.542969 C 983.148438 258.925781 1016.078125 259.730469 1051.863281 262.949219 L 1085.796875 261.007812 L 1136.824219 265.457031 C 1097.355469 258.792969 1064.988281 251.441406 1039.714844 243.402344 L 1042.410156 206.199219 L 1085.984375 214.109375 L 1035.394531 202.027344 L 1070.808594 196.765625 L 1037.609375 180.21875 L 1032.003906 166.121094 C 1062.710938 174.035156 1095.171875 183.277344 1129.394531 193.84375 C 1113.949219 184.496094 1087.117188 173.792969 1048.90625 161.730469 L 1055.917969 148.082031 L 1206.085938 121.953125 L 1245.519531 110.289062 C 1159.695312 122.542969 1109.730469 128.566406 1095.625 128.355469 L 1140.1875 116.441406 L 1289.148438 90.414062 C 1283.828125 89.398438 1255.703125 91.769531 1204.765625 97.523438 L 1326.15625 63.1875 C 1228.933594 83.972656 1179.496094 93.585938 1177.847656 92.03125 L 1197.898438 82.699219 L 1148.109375 90.058594 L 1152.300781 86.082031 C 1183.4375 80.398438 1216.179688 76.46875 1250.523438 74.28125 L 1298.984375 64.734375 L 1401.089844 33.464844 C 1388.050781 37.1875 1340.804688 44.015625 1259.347656 53.941406 C 1226.628906 57.675781 1195.011719 59.425781 1164.492188 59.195312 C 1119.875 64.027344 1086.671875 66.757812 1064.882812 67.378906 L 1030.101562 67.652344 L 1113.382812 53.339844 C 1143.285156 50.894531 1202.152344 43.988281 1289.992188 32.613281 L 1288.90625 29.472656 L 1237.386719 34.945312 L 1215.535156 29.425781 C 1184.546875 34.96875 1152.289062 41.285156 1118.753906 48.367188 L 1065.40625 55.664062 C 982.257812 65.121094 920.175781 71.339844 879.15625 74.320312 L 816.917969 77.761719 L 881.390625 59.992188 C 979.304688 50.460938 1050.484375 41.707031 1094.921875 33.730469 L 1044.261719 37.792969 L 924.757812 49.003906 C 924.25 47.886719 881.421875 50.777344 796.273438 57.679688 L 768.949219 56.476562 L 645.039062 63.1875 L 504.761719 66.554688 L 460.9375 69.589844 L 407.597656 66.375 L 361.148438 74.394531 L 315.050781 75.226562 L 262.363281 69.480469 C 247.332031 73.351562 220.738281 78.242188 182.578125 84.160156 L 174.660156 102.316406 C 179.285156 99.914062 160.324219 87.746094 117.78125 65.816406 L 79.265625 74.726562 L 125.964844 85.886719 C 106.652344 84.847656 85.078125 83.132812 61.246094 80.746094 L 16.816406 98.738281 L 8.558594 136.832031 " fill-opacity="1" fill-rule="nonzero"/></g><g clip-path="url(#204e90f43e)"><path fill="#facf73" d="M 575.257812 269.71875 L 734.109375 269.71875 L 734.109375 287.535156 C 734.109375 296.675781 726.691406 304.089844 717.554688 304.089844 L 558.703125 304.089844 L 558.703125 286.269531 C 558.703125 277.132812 566.117188 269.71875 575.257812 269.71875 Z M 575.257812 269.71875 " fill-opacity="1" fill-rule="nonzero"/></g></svg>