<svg xmlns="http://www.w3.org/2000/svg" xmlns:xlink="http://www.w3.org/1999/xlink" width="1977" zoomAndPan="magnify" viewBox="0 0 1482.75 315.749992" height="421" preserveAspectRatio="xMidYMid meet" version="1.0"><defs><clipPath id="71c2158bae"><path d="M 653.402344 118.816406 L 828.761719 118.816406 L 828.761719 153.289062 L 653.402344 153.289062 Z M 653.402344 118.816406 " clip-rule="nonzero"/></clipPath></defs><path fill="#facf73" d="M 158.445312 144.957031 C 146.316406 144.070312 132.117188 147.617188 122.351562 138.742188 C 112.886719 129.574219 74.429688 123.953125 106.378906 112.414062 C 98.09375 102.0625 110.816406 90.820312 104.011719 79.578125 C 99.871094 72.773438 104.898438 64.492188 104.898438 57.09375 C 105.785156 50.289062 121.167969 55.617188 124.71875 49.996094 C 129.453125 40.527344 171.460938 55.910156 171.164062 43.78125 C 170.574219 3.550781 269.378906 10.058594 298.371094 6.210938 C 395.699219 0.296875 493.027344 2.367188 590.652344 2.957031 C 603.964844 2.957031 618.753906 0 628.222656 11.242188 C 622.304688 20.117188 706.617188 12.128906 716.675781 14.199219 C 889.734375 7.988281 1063.386719 6.210938 1235.855469 25.441406 C 1268.394531 28.398438 1300.9375 31.359375 1333.773438 34.316406 C 1339.097656 34.613281 1342.355469 38.457031 1346.496094 41.417969 C 1350.046875 45.558594 1349.15625 52.066406 1355.960938 51.769531 C 1368.976562 51.769531 1380.515625 55.617188 1392.054688 61.53125 C 1406.253906 74.84375 1369.273438 62.714844 1366.613281 69.519531 C 1365.722656 71.886719 1364.835938 74.550781 1367.796875 76.914062 C 1376.078125 86.382812 1346.496094 88.453125 1355.371094 98.214844 C 1342.355469 116.261719 1360.398438 108.570312 1342.355469 119.8125 C 1364.246094 139.632812 1311.292969 128.390625 1302.710938 128.6875 C 1298.273438 128.09375 1288.808594 134.011719 1289.695312 138.152344 C 1292.949219 144.363281 1282.597656 147.617188 1286.441406 154.128906 C 1286.738281 157.972656 1282.003906 159.746094 1279.34375 162.410156 C 1286.144531 170.101562 1285.851562 173.355469 1275.199219 174.539062 C 1244.730469 174.242188 1213.964844 173.652344 1183.492188 173.058594 C 1177.28125 172.46875 1182.308594 176.019531 1179.941406 179.273438 C 1178.167969 180.75 1174.324219 184.007812 1173.730469 185.78125 C 1175.503906 187.554688 1177.578125 190.21875 1180.535156 189.921875 C 1217.21875 191.699219 1253.902344 193.769531 1290.582031 197.023438 C 1333.480469 201.164062 1376.375 206.191406 1419.269531 211.519531 C 1425.1875 212.40625 1431.398438 216.84375 1434.355469 221.578125 C 1435.242188 226.308594 1436.132812 227.492188 1439.976562 228.085938 C 1449.738281 228.675781 1480.210938 233.707031 1481.097656 244.652344 C 1472.8125 247.015625 1446.484375 237.253906 1452.699219 253.230469 C 1454.472656 255.300781 1456.542969 260.328125 1452.402344 261.21875 C 1447.078125 261.808594 1445.007812 267.429688 1440.273438 269.5 C 1438.792969 270.09375 1438.792969 272.164062 1439.976562 273.640625 C 1441.457031 275.417969 1440.863281 276.304688 1439.386719 278.078125 C 1432.285156 284.882812 1440.570312 291.390625 1428.734375 296.71875 C 1432.285156 302.335938 1439.679688 308.253906 1424.296875 308.550781 C 1349.15625 299.972656 1274.3125 290.503906 1198.875 287.84375 C 967.539062 277.488281 736.199219 296.421875 504.859375 299.082031 C 351.324219 303.226562 197.789062 312.101562 44.550781 312.988281 C 31.238281 314.761719 23.839844 299.082031 10.234375 298.789062 C 5.203125 297.898438 4.910156 293.167969 1.65625 291.097656 C 1.0625 286.066406 9.347656 283.40625 14.078125 281.628906 C 11.417969 278.078125 9.640625 274.53125 10.53125 270.09375 C 14.375 265.0625 11.714844 259.148438 12.894531 253.527344 C 13.191406 252.34375 12.601562 250.273438 11.714844 249.679688 C 6.09375 244.355469 11.417969 235.777344 11.121094 229.269531 C 11.714844 219.210938 25.914062 223.054688 32.125 218.914062 C 44.253906 203.53125 141.878906 227.789062 146.019531 208.265625 C 147.792969 191.992188 138.625 192.585938 145.132812 171.875 C 147.203125 164.183594 158.738281 167.734375 161.402344 159.15625 C 161.996094 153.535156 152.824219 152.648438 159.035156 146.140625 C 159.035156 145.84375 158.738281 145.546875 158.445312 144.957031 Z M 158.445312 144.957031 " fill-opacity="1" fill-rule="nonzero"/><g clip-path="url(#71c2158bae)"><path fill="#facf73" d="M 669.949219 118.84375 L 828.757812 118.84375 L 828.757812 136.65625 C 828.757812 145.792969 821.34375 153.207031 812.207031 153.207031 L 653.402344 153.207031 L 653.402344 135.394531 C 653.402344 126.257812 660.816406 118.84375 669.949219 118.84375 Z M 669.949219 118.84375 " fill-opacity="1" fill-rule="nonzero"/></g></svg>