<svg xmlns="http://www.w3.org/2000/svg" xmlns:xlink="http://www.w3.org/1999/xlink" width="953" zoomAndPan="magnify" viewBox="0 0 714.75 91.5" height="122" preserveAspectRatio="xMidYMid meet" version="1.0"><defs><clipPath id="f8a4de16f3"><path d="M 1.816406 0 L 712.683594 0 L 712.683594 90.257812 L 1.816406 90.257812 Z M 1.816406 0 " clip-rule="nonzero"/></clipPath><clipPath id="fbe67abef8"><path d="M 211.933594 13.40625 L 461.820312 13.40625 L 461.820312 45.480469 L 211.933594 45.480469 Z M 211.933594 13.40625 " clip-rule="nonzero"/></clipPath></defs><g clip-path="url(#f8a4de16f3)"><path fill="#957860" d="M 381.070312 10.160156 C 382.632812 9.734375 384.199219 8.882812 385.761719 8.882812 C 389.03125 8.882812 392.160156 9.875 395.433594 8.597656 C 396.425781 8.171875 397.847656 8.457031 398.988281 8.742188 C 404.53125 10.300781 410.21875 10.019531 415.910156 10.019531 C 434.253906 10.019531 452.453125 10.300781 470.796875 10.160156 C 487.007812 10.160156 503.363281 9.875 519.574219 9.734375 C 533.792969 9.59375 548.015625 9.59375 562.234375 9.449219 C 565.078125 9.449219 568.0625 9.59375 570.765625 8.882812 C 576.027344 7.320312 581.289062 7.464844 586.410156 8.457031 C 595.792969 10.300781 605.035156 9.734375 614.421875 8.171875 C 618.261719 8.597656 622.242188 9.167969 626.367188 9.59375 C 629.921875 10.019531 633.621094 9.023438 637.316406 10.867188 C 635.324219 15.265625 630.632812 14.273438 626.507812 16.117188 C 645.136719 17.394531 662.484375 18.53125 680.121094 19.804688 C 682.109375 20.941406 684.101562 22.21875 686.234375 23.351562 C 695.902344 25.480469 695.902344 25.480469 700.738281 28.742188 C 695.191406 30.871094 689.363281 29.59375 683.675781 30.730469 C 683.105469 31.011719 682.253906 31.4375 681.683594 31.722656 C 680.972656 32.148438 680.402344 32.574219 679.691406 33 C 677.417969 32.148438 675.285156 31.296875 672.867188 30.585938 C 671.730469 30.304688 670.589844 30.730469 670.308594 32.289062 C 674.289062 35.976562 674.289062 35.976562 693.628906 40.375 C 689.929688 43.921875 689.929688 43.921875 681.542969 45.058594 C 682.109375 45.339844 682.535156 45.625 682.964844 45.625 C 687.65625 46.761719 692.207031 48.605469 697.183594 48.605469 C 699.457031 48.605469 701.734375 49.878906 704.007812 50.730469 C 704.578125 50.875 704.71875 51.867188 705.148438 52.433594 C 702.160156 53.996094 698.605469 52.574219 695.761719 54.988281 C 698.320312 57.542969 701.734375 56.40625 704.71875 56.972656 C 707.421875 57.542969 710.265625 57.96875 712.683594 59.527344 C 711.6875 61.230469 709.695312 60.519531 707.847656 61.65625 C 707.28125 62.507812 706.425781 63.785156 705.289062 65.34375 C 694.339844 67.613281 682.820312 65.910156 671.019531 67.046875 C 674.003906 69.03125 676.847656 68.179688 679.550781 68.324219 C 681.96875 68.464844 684.386719 68.324219 686.800781 68.605469 C 689.503906 68.890625 692.492188 68.039062 695.761719 69.882812 C 689.503906 70.167969 683.816406 70.59375 678.414062 70.875 C 676.5625 72.296875 674.859375 73.429688 672.726562 74.992188 C 668.886719 75.132812 664.335938 75.273438 659.925781 75.273438 C 648.550781 75.414062 637.175781 75.414062 625.796875 75.699219 C 623.378906 75.699219 620.964844 75.273438 618.832031 77.261719 L 618.832031 81.941406 C 614.707031 84.496094 610.015625 82.933594 605.605469 83.925781 C 605.179688 85.347656 607.167969 85.347656 607.167969 86.621094 C 606.601562 86.765625 605.890625 87.191406 605.179688 87.191406 C 591.386719 87.332031 577.59375 87.617188 563.65625 87.617188 C 559.957031 87.617188 556.402344 87.046875 552.421875 86.765625 C 549.578125 85.773438 546.449219 84.777344 543.890625 83.785156 C 542.609375 83.644531 541.757812 83.503906 540.902344 83.503906 C 514.453125 83.359375 488.148438 83.21875 461.699219 83.21875 C 437.664062 83.21875 413.777344 83.503906 389.742188 83.503906 C 386.1875 83.503906 382.492188 82.652344 378.367188 82.082031 C 375.808594 82.367188 372.539062 83.078125 369.265625 83.078125 C 360.734375 83.078125 352.203125 83.503906 343.8125 81.65625 C 342.675781 81.375 341.394531 81.375 340.117188 81.375 C 327.460938 81.230469 314.945312 81.089844 302.289062 81.089844 C 301.578125 81.089844 300.867188 81.65625 300.015625 81.941406 C 300.582031 82.367188 301.152344 82.933594 301.722656 82.933594 C 306.554688 83.078125 311.390625 83.21875 316.367188 83.21875 C 320.777344 83.21875 325.328125 83.21875 329.734375 83.21875 C 331.015625 83.21875 332.292969 83.078125 333.433594 83.503906 C 342.105469 86.765625 351.066406 85.488281 360.023438 85.628906 C 372.539062 85.914062 385.191406 85.347656 397.707031 86.054688 C 398.277344 86.054688 398.988281 86.480469 399.554688 86.765625 C 398.703125 86.90625 397.992188 87.332031 397.136719 87.332031 C 371.96875 87.046875 346.796875 87.617188 321.628906 86.339844 C 315.941406 86.054688 310.394531 84.921875 304.707031 85.347656 C 298.59375 85.773438 292.476562 85.203125 286.363281 85.203125 C 280.675781 85.203125 274.988281 85.203125 269.300781 85.0625 C 263.609375 85.0625 257.921875 84.921875 252.234375 84.921875 C 232.328125 84.921875 212.417969 84.777344 192.511719 84.777344 C 189.382812 84.777344 186.253906 84.636719 183.265625 84.210938 C 208.011719 83.21875 232.753906 84.777344 257.496094 82.367188 C 257.636719 82.367188 257.921875 81.941406 258.066406 81.65625 C 257.78125 81.375 257.355469 80.949219 257.070312 80.949219 C 218.105469 78.960938 179 80.523438 140.039062 81.089844 C 123.398438 81.375 106.761719 82.652344 89.128906 83.925781 C 94.535156 86.054688 99.082031 84.921875 103.492188 85.347656 C 108.328125 85.773438 113.304688 85.488281 118.140625 85.773438 C 122.40625 86.054688 126.671875 85.347656 133.355469 86.765625 C 120.839844 87.332031 110.601562 87.332031 100.503906 88.183594 C 90.410156 89.175781 80.3125 89.886719 70.074219 90.027344 C 63.105469 90.167969 56.28125 89.886719 49.457031 88.46875 C 45.898438 87.757812 42.203125 87.617188 38.503906 87.191406 C 37.367188 87.046875 36.230469 86.339844 34.808594 85.773438 C 35.234375 84.636719 35.234375 83.078125 35.945312 82.652344 C 38.363281 81.230469 40.921875 80.238281 44.195312 78.679688 C 40.070312 78.253906 36.371094 78.109375 32.960938 77.261719 C 28.976562 76.410156 25.28125 74.847656 21.582031 73.714844 C 20.445312 72.4375 21.015625 71.585938 22.152344 70.875 C 23.007812 70.308594 23.859375 69.597656 25.421875 68.464844 C 17.460938 66.621094 8.929688 67.753906 1.816406 64.066406 L 1.816406 57.542969 C 2.101562 56.972656 2.246094 56.546875 2.527344 56.265625 C 5.089844 54.421875 7.648438 52.433594 9.78125 50.023438 C 10.777344 49.03125 12.765625 48.886719 13.90625 48.460938 C 16.179688 46.902344 15.753906 44.632812 16.179688 42.789062 C 18.457031 40.945312 22.152344 42.21875 23.71875 39.097656 C 22.578125 34.277344 17.886719 33.140625 14.332031 30.730469 C 14.191406 30.019531 14.046875 29.167969 14.191406 28.460938 C 14.332031 27.75 14.757812 27.039062 15.183594 26.191406 C 17.886719 24.203125 21.300781 24.628906 24.285156 23.496094 C 26.988281 22.5 29.6875 21.507812 30.402344 21.226562 C 37.652344 19.949219 42.773438 18.953125 47.890625 18.105469 C 51.160156 17.679688 54.289062 17.535156 57.5625 17.253906 C 64.8125 16.683594 72.207031 16.117188 79.460938 15.832031 C 87.140625 15.410156 94.960938 15.125 102.640625 14.839844 C 114.867188 14.414062 126.957031 13.847656 139.183594 13.421875 C 149.28125 13.136719 159.519531 12.855469 169.617188 12.714844 C 187.53125 12.429688 205.449219 12.570312 223.226562 11.863281 C 235.453125 11.4375 247.542969 12.429688 259.773438 11.152344 C 269.441406 12.289062 279.253906 11.71875 289.066406 11.863281 C 311.816406 12.144531 334.570312 12.429688 357.320312 12.714844 C 359.3125 12.714844 361.445312 12.714844 363.4375 12.996094 C 377.085938 15.410156 391.023438 14.558594 404.816406 14.984375 C 409.226562 15.125 413.777344 14.699219 418.183594 15.832031 C 419.75 16.257812 421.453125 16.117188 423.019531 16.117188 C 430.699219 15.832031 438.519531 15.410156 446.054688 16.828125 C 457.714844 16.117188 469.519531 18.53125 481.179688 15.550781 C 483.027344 14.984375 485.160156 15.125 487.4375 14.984375 C 487.007812 13.28125 485.871094 13.5625 485.160156 13.5625 C 479.472656 13.28125 473.785156 12.855469 468.097656 12.855469 C 443.636719 12.714844 419.320312 12.714844 394.863281 12.570312 C 391.164062 12.570312 387.609375 12.570312 384.054688 12.570312 C 382.917969 11.578125 381.921875 10.867188 381.070312 10.019531 Z M 381.070312 10.160156 C 379.503906 9.59375 378.082031 8.742188 376.519531 8.597656 C 372.109375 8.316406 367.558594 8.171875 363.152344 8.03125 C 350.496094 7.746094 337.980469 7.605469 325.328125 7.320312 C 324.472656 7.320312 323.621094 6.753906 320.777344 5.902344 C 326.464844 5.476562 330.019531 5.050781 333.574219 5.050781 C 342.53125 4.910156 351.492188 4.484375 360.449219 4.910156 C 383.203125 5.761719 405.953125 5.195312 428.707031 5.476562 C 443.355469 5.621094 458 5.761719 472.503906 5.761719 C 501.371094 5.902344 530.238281 5.902344 559.105469 5.902344 C 572.046875 5.902344 585.128906 5.476562 598.070312 5.476562 C 622.8125 5.335938 647.695312 5.195312 672.441406 4.910156 C 674.289062 4.910156 676.136719 4.769531 677.984375 4.625 C 675.570312 3.777344 673.152344 3.632812 670.734375 3.632812 C 656.085938 3.492188 641.441406 3.632812 626.792969 3.492188 C 586.125 3.066406 545.453125 2.925781 504.785156 3.207031 C 480.042969 3.351562 455.15625 3.492188 430.414062 3.492188 C 411.785156 3.492188 393.015625 3.207031 374.386719 2.925781 C 367.132812 2.78125 359.738281 3.351562 352.488281 1.648438 C 350.496094 1.222656 348.503906 1.363281 346.371094 1.363281 C 338.691406 1.222656 330.871094 0.9375 323.191406 0.9375 C 303.996094 0.371094 284.515625 0.230469 264.890625 0.0859375 C 257.636719 0.0859375 250.242188 0.0859375 242.992188 0.0859375 C 221.804688 0.230469 200.757812 0.371094 179.570312 0.65625 C 167.765625 0.796875 155.964844 0.511719 144.160156 1.507812 C 135.203125 2.214844 126.386719 2.5 117.429688 2.78125 C 109.75 2.925781 102.070312 3.066406 94.390625 3.066406 C 86.710938 3.207031 79.035156 3.917969 70.929688 6.613281 C 75.476562 7.320312 79.460938 7.605469 83.15625 6.753906 C 89.128906 5.335938 95.246094 5.621094 101.359375 5.335938 C 114.015625 5.050781 126.527344 4.769531 139.183594 4.484375 C 142.457031 4.34375 145.726562 4.34375 148.855469 3.777344 C 153.261719 2.925781 157.671875 2.925781 162.222656 2.925781 C 195.496094 2.925781 228.914062 3.207031 262.1875 2.925781 C 275.984375 2.78125 289.777344 3.632812 303.570312 3.492188 C 303.996094 3.492188 304.28125 4.203125 305.132812 5.050781 C 298.164062 5.195312 291.625 5.476562 285.226562 5.621094 C 278.683594 5.621094 272.285156 5.476562 265.742188 5.476562 C 259.203125 5.476562 252.804688 5.761719 246.261719 5.761719 C 239.722656 5.902344 233.179688 5.761719 226.78125 6.046875 C 220.667969 6.328125 214.410156 5.195312 205.59375 7.039062 C 216.542969 7.179688 224.648438 7.179688 232.753906 7.179688 C 249.390625 7.320312 266.027344 7.320312 282.808594 7.605469 C 287.644531 7.746094 292.621094 7.320312 297.3125 8.742188 C 301.722656 10.160156 306.128906 10.300781 310.539062 10.300781 C 329.59375 10.300781 348.789062 10.300781 367.84375 10.160156 C 372.253906 10.160156 376.804688 9.875 381.210938 9.734375 Z M 122.261719 9.59375 C 131.789062 9.449219 141.460938 9.308594 150.988281 9.167969 C 141.035156 8.597656 130.9375 8.597656 120.839844 8.597656 C 120.554688 8.597656 120.273438 9.023438 119.988281 9.167969 C 120.699219 9.308594 121.550781 9.59375 122.261719 9.59375 M 80.171875 10.726562 C 77.753906 10.726562 75.335938 10.585938 73.0625 10.726562 C 71.070312 10.867188 68.9375 10.441406 65.382812 12.144531 C 73.773438 12.003906 80.597656 12.429688 87.421875 10.867188 C 84.863281 10.867188 82.445312 10.726562 80.171875 10.726562 " fill-opacity="1" fill-rule="nonzero"/></g><g clip-path="url(#fbe67abef8)"><path fill="#957860" d="M 345.25 17.011719 C 345.800781 16.863281 346.351562 16.558594 346.898438 16.558594 C 348.050781 16.558594 349.148438 16.914062 350.300781 16.457031 C 350.648438 16.308594 351.148438 16.40625 351.546875 16.507812 C 353.5 17.0625 355.496094 16.960938 357.496094 16.960938 C 363.945312 16.960938 370.34375 17.0625 376.792969 17.011719 C 382.492188 17.011719 388.238281 16.914062 393.9375 16.863281 C 398.9375 16.8125 403.933594 16.8125 408.933594 16.761719 C 409.933594 16.761719 410.984375 16.8125 411.933594 16.558594 C 413.78125 16.003906 415.632812 16.054688 417.429688 16.40625 C 420.730469 17.0625 423.980469 16.863281 427.277344 16.308594 C 428.628906 16.457031 430.027344 16.660156 431.476562 16.8125 C 432.726562 16.960938 434.027344 16.609375 435.328125 17.265625 C 434.625 18.828125 432.976562 18.476562 431.527344 19.132812 C 438.074219 19.585938 444.175781 19.988281 450.371094 20.441406 C 451.074219 20.84375 451.773438 21.300781 452.523438 21.703125 C 455.921875 22.460938 455.921875 22.460938 457.621094 23.617188 C 455.671875 24.375 453.621094 23.921875 451.621094 24.324219 C 451.421875 24.425781 451.121094 24.578125 450.921875 24.679688 C 450.671875 24.828125 450.472656 24.980469 450.222656 25.132812 C 449.421875 24.828125 448.671875 24.527344 447.824219 24.273438 C 447.421875 24.171875 447.023438 24.324219 446.921875 24.878906 C 448.324219 26.191406 448.324219 26.191406 455.121094 27.753906 C 453.820312 29.015625 453.820312 29.015625 450.871094 29.417969 C 451.074219 29.519531 451.222656 29.621094 451.371094 29.621094 C 453.023438 30.023438 454.621094 30.679688 456.371094 30.679688 C 457.171875 30.679688 457.972656 31.132812 458.769531 31.433594 C 458.96875 31.484375 459.019531 31.839844 459.171875 32.039062 C 458.121094 32.59375 456.871094 32.089844 455.871094 32.949219 C 456.769531 33.855469 457.972656 33.453125 459.019531 33.652344 C 459.96875 33.855469 460.96875 34.007812 461.820312 34.5625 C 461.46875 35.167969 460.769531 34.914062 460.121094 35.316406 C 459.921875 35.621094 459.621094 36.074219 459.21875 36.628906 C 455.371094 37.4375 451.324219 36.832031 447.171875 37.234375 C 448.222656 37.941406 449.222656 37.636719 450.171875 37.6875 C 451.023438 37.738281 451.871094 37.6875 452.722656 37.789062 C 453.671875 37.890625 454.722656 37.585938 455.871094 38.242188 C 453.671875 38.34375 451.671875 38.496094 449.773438 38.597656 C 449.125 39.101562 448.523438 39.503906 447.773438 40.058594 C 446.421875 40.109375 444.824219 40.160156 443.273438 40.160156 C 439.277344 40.210938 435.277344 40.210938 431.277344 40.308594 C 430.429688 40.308594 429.578125 40.160156 428.828125 40.863281 L 428.828125 42.527344 C 427.378906 43.4375 425.730469 42.882812 424.179688 43.234375 C 424.03125 43.738281 424.730469 43.738281 424.730469 44.191406 C 424.53125 44.242188 424.28125 44.394531 424.03125 44.394531 C 419.179688 44.445312 414.332031 44.546875 409.433594 44.546875 C 408.132812 44.546875 406.882812 44.34375 405.484375 44.242188 C 404.484375 43.890625 403.386719 43.539062 402.484375 43.183594 C 402.035156 43.132812 401.734375 43.082031 401.4375 43.082031 C 392.136719 43.035156 382.890625 42.984375 373.59375 42.984375 C 365.144531 42.984375 356.746094 43.082031 348.300781 43.082031 C 347.050781 43.082031 345.75 42.78125 344.300781 42.578125 C 343.402344 42.679688 342.25 42.933594 341.101562 42.933594 C 338.101562 42.933594 335.101562 43.082031 332.152344 42.429688 C 331.753906 42.328125 331.304688 42.328125 330.855469 42.328125 C 326.40625 42.277344 322.007812 42.226562 317.558594 42.226562 C 317.308594 42.226562 317.058594 42.429688 316.757812 42.527344 C 316.957031 42.679688 317.15625 42.882812 317.359375 42.882812 C 319.058594 42.933594 320.757812 42.984375 322.507812 42.984375 C 324.054688 42.984375 325.65625 42.984375 327.203125 42.984375 C 327.65625 42.984375 328.105469 42.933594 328.503906 43.082031 C 331.554688 44.242188 334.703125 43.789062 337.851562 43.839844 C 342.25 43.941406 346.699219 43.738281 351.097656 43.992188 C 351.296875 43.992188 351.546875 44.144531 351.75 44.242188 C 351.449219 44.292969 351.199219 44.445312 350.898438 44.445312 C 342.050781 44.34375 333.203125 44.546875 324.355469 44.09375 C 322.355469 43.992188 320.40625 43.589844 318.40625 43.738281 C 316.257812 43.890625 314.109375 43.6875 311.960938 43.6875 C 309.960938 43.6875 307.960938 43.6875 305.960938 43.636719 C 303.960938 43.636719 301.960938 43.589844 299.960938 43.589844 C 292.964844 43.589844 285.964844 43.539062 278.96875 43.539062 C 277.867188 43.539062 276.769531 43.488281 275.71875 43.335938 C 284.417969 42.984375 293.113281 43.539062 301.8125 42.679688 C 301.863281 42.679688 301.960938 42.527344 302.011719 42.429688 C 301.910156 42.328125 301.761719 42.175781 301.660156 42.175781 C 287.964844 41.46875 274.21875 42.023438 260.523438 42.226562 C 254.675781 42.328125 248.824219 42.78125 242.628906 43.234375 C 244.527344 43.992188 246.125 43.589844 247.675781 43.738281 C 249.375 43.890625 251.125 43.789062 252.824219 43.890625 C 254.324219 43.992188 255.824219 43.738281 258.171875 44.242188 C 253.773438 44.445312 250.175781 44.445312 246.625 44.746094 C 243.078125 45.101562 239.527344 45.351562 235.929688 45.402344 C 233.480469 45.453125 231.082031 45.351562 228.679688 44.847656 C 227.429688 44.597656 226.132812 44.546875 224.832031 44.394531 C 224.433594 44.34375 224.03125 44.09375 223.53125 43.890625 C 223.683594 43.488281 223.683594 42.933594 223.933594 42.78125 C 224.78125 42.277344 225.679688 41.925781 226.832031 41.371094 C 225.382812 41.21875 224.082031 41.167969 222.882812 40.863281 C 221.484375 40.5625 220.183594 40.007812 218.882812 39.605469 C 218.484375 39.152344 218.683594 38.847656 219.082031 38.597656 C 219.382812 38.394531 219.683594 38.140625 220.234375 37.738281 C 217.433594 37.082031 214.433594 37.488281 211.933594 36.175781 L 211.933594 33.855469 C 212.035156 33.652344 212.085938 33.503906 212.183594 33.402344 C 213.085938 32.746094 213.984375 32.039062 214.734375 31.183594 C 215.085938 30.828125 215.785156 30.78125 216.183594 30.628906 C 216.984375 30.074219 216.832031 29.265625 216.984375 28.609375 C 217.785156 27.957031 219.082031 28.410156 219.632812 27.300781 C 219.234375 25.585938 217.582031 25.183594 216.335938 24.324219 C 216.285156 24.074219 216.234375 23.769531 216.285156 23.519531 C 216.335938 23.265625 216.484375 23.015625 216.632812 22.710938 C 217.582031 22.003906 218.785156 22.15625 219.832031 21.753906 C 220.78125 21.398438 221.734375 21.046875 221.984375 20.945312 C 224.53125 20.492188 226.332031 20.140625 228.132812 19.835938 C 229.28125 19.6875 230.378906 19.636719 231.53125 19.535156 C 234.078125 19.332031 236.679688 19.132812 239.226562 19.03125 C 241.925781 18.878906 244.675781 18.777344 247.375 18.675781 C 251.675781 18.527344 255.921875 18.324219 260.222656 18.171875 C 263.773438 18.070312 267.371094 17.972656 270.917969 17.921875 C 277.21875 17.820312 283.515625 17.871094 289.765625 17.617188 C 294.0625 17.46875 298.3125 17.820312 302.613281 17.367188 C 306.011719 17.769531 309.460938 17.566406 312.910156 17.617188 C 320.90625 17.71875 328.90625 17.820312 336.902344 17.921875 C 337.601562 17.921875 338.351562 17.921875 339.050781 18.023438 C 343.851562 18.878906 348.75 18.578125 353.597656 18.726562 C 355.148438 18.777344 356.746094 18.625 358.296875 19.03125 C 358.847656 19.179688 359.445312 19.132812 359.996094 19.132812 C 362.695312 19.03125 365.445312 18.878906 368.09375 19.382812 C 372.191406 19.132812 376.34375 19.988281 380.441406 18.929688 C 381.089844 18.726562 381.839844 18.777344 382.640625 18.726562 C 382.492188 18.121094 382.089844 18.222656 381.839844 18.222656 C 379.839844 18.121094 377.839844 17.972656 375.84375 17.972656 C 367.246094 17.921875 358.695312 17.921875 350.097656 17.871094 C 348.800781 17.871094 347.550781 17.871094 346.300781 17.871094 C 345.898438 17.515625 345.550781 17.265625 345.25 16.960938 Z M 345.25 17.011719 C 344.699219 16.8125 344.199219 16.507812 343.652344 16.457031 C 342.101562 16.359375 340.5 16.308594 338.953125 16.257812 C 334.503906 16.15625 330.105469 16.105469 325.65625 16.003906 C 325.355469 16.003906 325.054688 15.804688 324.054688 15.5 C 326.054688 15.347656 327.304688 15.199219 328.554688 15.199219 C 331.703125 15.148438 334.851562 14.996094 338.003906 15.148438 C 346 15.449219 353.996094 15.25 361.996094 15.347656 C 367.144531 15.398438 372.292969 15.449219 377.390625 15.449219 C 387.539062 15.5 397.6875 15.5 407.832031 15.5 C 412.382812 15.5 416.980469 15.347656 421.53125 15.347656 C 430.226562 15.296875 438.976562 15.25 447.671875 15.148438 C 448.324219 15.148438 448.972656 15.097656 449.621094 15.046875 C 448.773438 14.742188 447.921875 14.695312 447.074219 14.695312 C 441.925781 14.644531 436.777344 14.695312 431.628906 14.644531 C 417.332031 14.492188 403.035156 14.441406 388.738281 14.542969 C 380.042969 14.59375 371.292969 14.644531 362.597656 14.644531 C 356.046875 14.644531 349.449219 14.542969 342.902344 14.441406 C 340.351562 14.390625 337.753906 14.59375 335.203125 13.988281 C 334.503906 13.835938 333.804688 13.886719 333.054688 13.886719 C 330.355469 13.835938 327.605469 13.734375 324.90625 13.734375 C 318.15625 13.535156 311.308594 13.484375 304.410156 13.433594 C 301.863281 13.433594 299.261719 13.433594 296.714844 13.433594 C 289.265625 13.484375 281.867188 13.535156 274.417969 13.632812 C 270.269531 13.683594 266.121094 13.585938 261.972656 13.9375 C 258.824219 14.1875 255.722656 14.289062 252.574219 14.390625 C 249.875 14.441406 247.175781 14.492188 244.476562 14.492188 C 241.777344 14.542969 239.078125 14.792969 236.230469 15.753906 C 237.828125 16.003906 239.226562 16.105469 240.527344 15.804688 C 242.628906 15.296875 244.777344 15.398438 246.925781 15.296875 C 251.375 15.199219 255.773438 15.097656 260.222656 14.996094 C 261.371094 14.945312 262.523438 14.945312 263.621094 14.742188 C 265.171875 14.441406 266.722656 14.441406 268.320312 14.441406 C 280.015625 14.441406 291.765625 14.542969 303.460938 14.441406 C 308.308594 14.390625 313.160156 14.695312 318.007812 14.644531 C 318.15625 14.644531 318.257812 14.894531 318.558594 15.199219 C 316.109375 15.25 313.808594 15.347656 311.558594 15.398438 C 309.257812 15.398438 307.011719 15.347656 304.710938 15.347656 C 302.410156 15.347656 300.164062 15.449219 297.863281 15.449219 C 295.5625 15.5 293.265625 15.449219 291.015625 15.550781 C 288.863281 15.652344 286.664062 15.25 283.566406 15.902344 C 287.414062 15.953125 290.265625 15.953125 293.113281 15.953125 C 298.960938 16.003906 304.8125 16.003906 310.710938 16.105469 C 312.410156 16.15625 314.160156 16.003906 315.808594 16.507812 C 317.359375 17.011719 318.90625 17.0625 320.457031 17.0625 C 327.15625 17.0625 333.902344 17.0625 340.601562 17.011719 C 342.152344 17.011719 343.75 16.914062 345.300781 16.863281 Z M 254.273438 16.8125 C 257.625 16.761719 261.023438 16.710938 264.371094 16.660156 C 260.871094 16.457031 257.324219 16.457031 253.773438 16.457031 C 253.675781 16.457031 253.574219 16.609375 253.472656 16.660156 C 253.722656 16.710938 254.023438 16.8125 254.273438 16.8125 M 239.476562 17.214844 C 238.628906 17.214844 237.777344 17.164062 236.980469 17.214844 C 236.277344 17.265625 235.527344 17.113281 234.28125 17.71875 C 237.230469 17.667969 239.628906 17.820312 242.027344 17.265625 C 241.128906 17.265625 240.277344 17.214844 239.476562 17.214844 " fill-opacity="1" fill-rule="nonzero"/></g></svg>