<svg xmlns="http://www.w3.org/2000/svg" xmlns:xlink="http://www.w3.org/1999/xlink" width="2330" zoomAndPan="magnify" viewBox="0 0 1747.5 275.25" height="367" preserveAspectRatio="xMidYMid meet" version="1.0"><defs><clipPath id="f9ae123d68"><path d="M 64 0 L 1682 0 L 1682 274.503906 L 64 274.503906 Z M 64 0 " clip-rule="nonzero"/></clipPath><clipPath id="994d9b98ca"><path d="M 873.210938 120.019531 L 1048.234375 120.019531 L 1048.234375 154.425781 L 873.210938 154.425781 Z M 873.210938 120.019531 " clip-rule="nonzero"/></clipPath></defs><g clip-path="url(#f9ae123d68)"><path fill="#facf73" d="M 1595.433594 91.449219 L 1666.394531 91.449219 C 1674.820312 91.449219 1681.648438 84.597656 1681.648438 76.195312 C 1681.648438 71.984375 1679.945312 68.164062 1677.1875 65.402344 C 1674.425781 62.640625 1670.609375 60.941406 1666.394531 60.941406 L 1560.570312 60.941406 C 1556.355469 60.941406 1552.535156 59.242188 1549.773438 56.480469 C 1547.011719 53.71875 1545.3125 49.902344 1545.3125 45.6875 C 1545.3125 37.257812 1552.140625 30.433594 1560.5625 30.433594 L 1630.910156 30.433594 C 1639.339844 30.433594 1646.164062 23.609375 1646.164062 15.183594 C 1646.164062 10.972656 1644.460938 7.148438 1641.703125 4.394531 C 1638.941406 1.632812 1635.125 -0.0664062 1630.90625 -0.0664062 L 115.5 -0.0664062 C 107.078125 -0.0664062 100.25 6.757812 100.25 15.183594 C 100.25 19.394531 101.949219 23.21875 104.710938 25.976562 C 107.472656 28.738281 111.289062 30.4375 115.503906 30.4375 L 169.664062 30.4375 C 173.875 30.4375 177.695312 32.140625 180.453125 34.898438 C 183.210938 37.660156 184.914062 41.476562 184.914062 45.695312 C 184.914062 54.125 178.089844 60.945312 169.664062 60.945312 L 101.804688 60.945312 C 93.378906 60.945312 86.550781 67.773438 86.550781 76.195312 C 86.550781 80.410156 88.253906 84.230469 91.011719 86.988281 C 93.773438 89.742188 97.589844 91.449219 101.804688 91.449219 L 229.414062 91.449219 C 233.625 91.449219 237.445312 93.148438 240.203125 95.910156 C 242.964844 98.667969 244.664062 102.484375 244.664062 106.699219 C 244.664062 115.125 237.839844 121.949219 229.414062 121.949219 L 129.203125 121.949219 C 120.777344 121.949219 113.953125 128.777344 113.953125 137.199219 C 113.953125 141.386719 115.652344 145.210938 118.414062 147.96875 C 121.175781 150.757812 124.992188 152.457031 129.203125 152.457031 L 150.984375 152.457031 C 155.199219 152.457031 159.019531 154.15625 161.777344 156.917969 C 164.539062 159.679688 166.238281 163.472656 166.238281 167.6875 C 166.238281 176.113281 159.410156 182.9375 150.984375 182.9375 L 80.023438 182.9375 C 71.601562 182.9375 64.773438 189.789062 64.773438 198.1875 C 64.773438 202.402344 66.472656 206.222656 69.234375 208.984375 C 71.996094 211.742188 75.8125 213.445312 80.023438 213.445312 L 185.851562 213.445312 C 190.066406 213.445312 193.886719 215.144531 196.644531 217.90625 C 199.402344 220.664062 201.105469 224.480469 201.105469 228.699219 C 201.105469 237.128906 194.277344 243.949219 185.851562 243.949219 L 115.503906 243.949219 C 107.082031 243.949219 100.253906 250.777344 100.253906 259.199219 C 100.253906 263.414062 101.953125 267.234375 104.714844 269.992188 C 107.476562 272.753906 111.292969 274.453125 115.511719 274.453125 L 1630.925781 274.453125 C 1639.351562 274.453125 1646.175781 267.625 1646.175781 259.199219 C 1646.175781 254.988281 1644.476562 251.167969 1641.714844 248.40625 C 1638.953125 245.644531 1635.136719 243.945312 1630.917969 243.945312 L 1576.761719 243.945312 C 1572.550781 243.945312 1568.730469 242.246094 1565.972656 239.484375 C 1563.214844 236.722656 1561.511719 232.90625 1561.511719 228.691406 C 1561.511719 220.261719 1568.335938 213.441406 1576.761719 213.441406 L 1644.621094 213.441406 C 1653.046875 213.441406 1659.875 206.613281 1659.875 198.1875 C 1659.875 193.976562 1658.171875 190.15625 1655.414062 187.398438 C 1652.652344 184.636719 1648.835938 182.9375 1644.617188 182.9375 L 1517.007812 182.9375 C 1512.796875 182.9375 1508.972656 181.238281 1506.21875 178.476562 C 1503.457031 175.714844 1501.757812 171.898438 1501.757812 167.6875 C 1501.757812 159.261719 1508.582031 152.433594 1517.007812 152.433594 L 1617.21875 152.433594 C 1625.644531 152.433594 1632.46875 145.609375 1632.46875 137.183594 C 1632.46875 132.996094 1630.769531 129.175781 1628.007812 126.414062 C 1625.246094 123.628906 1621.429688 121.929688 1617.21875 121.929688 L 1595.433594 121.929688 C 1591.222656 121.929688 1587.402344 120.230469 1584.644531 117.46875 C 1581.886719 114.707031 1580.183594 110.910156 1580.183594 106.699219 C 1580.183594 98.273438 1587.011719 91.449219 1595.433594 91.449219 Z M 1595.433594 91.449219 " fill-opacity="1" fill-rule="nonzero"/></g><path fill="#facf73" d="M 1726.859375 61.050781 L 1727.402344 61.050781 C 1728.402344 61.050781 1729.394531 61.148438 1730.375 61.34375 C 1731.359375 61.539062 1732.3125 61.828125 1733.238281 62.210938 C 1734.160156 62.59375 1735.039062 63.066406 1735.875 63.621094 C 1736.707031 64.175781 1737.476562 64.808594 1738.183594 65.515625 C 1738.894531 66.226562 1739.523438 66.996094 1740.082031 67.828125 C 1740.636719 68.660156 1741.109375 69.539062 1741.492188 70.464844 C 1741.875 71.390625 1742.164062 72.34375 1742.359375 73.328125 C 1742.554688 74.308594 1742.652344 75.300781 1742.652344 76.300781 C 1742.652344 77.304688 1742.554688 78.296875 1742.359375 79.277344 C 1742.164062 80.257812 1741.875 81.214844 1741.492188 82.136719 C 1741.109375 83.0625 1740.636719 83.941406 1740.082031 84.773438 C 1739.523438 85.605469 1738.894531 86.378906 1738.183594 87.085938 C 1737.476562 87.792969 1736.707031 88.425781 1735.875 88.984375 C 1735.039062 89.539062 1734.160156 90.007812 1733.238281 90.390625 C 1732.3125 90.773438 1731.359375 91.066406 1730.375 91.261719 C 1729.394531 91.457031 1728.402344 91.554688 1727.402344 91.554688 L 1726.859375 91.554688 C 1725.855469 91.554688 1724.863281 91.457031 1723.882812 91.261719 C 1722.898438 91.0625 1721.945312 90.773438 1721.019531 90.390625 C 1720.097656 90.007812 1719.21875 89.539062 1718.382812 88.984375 C 1717.550781 88.425781 1716.78125 87.792969 1716.074219 87.085938 C 1715.363281 86.378906 1714.734375 85.605469 1714.175781 84.773438 C 1713.621094 83.941406 1713.152344 83.0625 1712.765625 82.136719 C 1712.382812 81.214844 1712.09375 80.257812 1711.898438 79.277344 C 1711.703125 78.296875 1711.605469 77.304688 1711.605469 76.300781 C 1711.605469 75.300781 1711.703125 74.308594 1711.898438 73.328125 C 1712.09375 72.34375 1712.382812 71.390625 1712.765625 70.464844 C 1713.152344 69.539062 1713.621094 68.660156 1714.175781 67.828125 C 1714.734375 66.996094 1715.363281 66.226562 1716.074219 65.515625 C 1716.78125 64.808594 1717.550781 64.175781 1718.382812 63.621094 C 1719.21875 63.066406 1720.097656 62.59375 1721.019531 62.210938 C 1721.945312 61.828125 1722.898438 61.539062 1723.882812 61.34375 C 1724.863281 61.148438 1725.855469 61.050781 1726.859375 61.050781 Z M 1726.859375 61.050781 " fill-opacity="1" fill-rule="nonzero"/><path fill="#facf73" d="M 1685.191406 182.785156 L 1684.648438 182.785156 C 1676.222656 182.785156 1669.398438 189.617188 1669.398438 198.039062 C 1669.398438 206.457031 1676.226562 213.289062 1684.648438 213.289062 L 1685.191406 213.289062 C 1693.617188 213.289062 1700.441406 206.457031 1700.441406 198.039062 C 1700.441406 189.617188 1693.613281 182.785156 1685.191406 182.785156 Z M 1685.191406 182.785156 " fill-opacity="1" fill-rule="nonzero"/><path fill="#facf73" d="M 19.558594 182.832031 L 19.015625 182.832031 C 10.589844 182.832031 3.765625 189.664062 3.765625 198.082031 C 3.765625 206.503906 10.59375 213.335938 19.015625 213.335938 L 19.558594 213.335938 C 27.984375 213.335938 34.808594 206.503906 34.808594 198.082031 C 34.808594 189.664062 27.980469 182.832031 19.558594 182.832031 Z M 19.558594 182.832031 " fill-opacity="1" fill-rule="nonzero"/><path fill="#facf73" d="M 77.019531 76.347656 C 77.019531 67.921875 70.191406 61.097656 61.769531 61.097656 L 61.226562 61.097656 C 52.800781 61.097656 45.976562 67.925781 45.976562 76.347656 C 45.976562 84.769531 52.804688 91.597656 61.226562 91.597656 L 61.769531 91.597656 C 70.195312 91.597656 77.019531 84.769531 77.019531 76.347656 Z M 77.019531 76.347656 " fill-opacity="1" fill-rule="nonzero"/><g clip-path="url(#994d9b98ca)"><path fill="#facf73" d="M 889.730469 120.050781 L 1048.230469 120.050781 L 1048.230469 137.828125 C 1048.230469 146.949219 1040.832031 154.347656 1031.714844 154.347656 L 873.210938 154.347656 L 873.210938 136.566406 C 873.210938 127.449219 880.613281 120.050781 889.730469 120.050781 Z M 889.730469 120.050781 " fill-opacity="1" fill-rule="nonzero"/></g></svg>