<svg xmlns="http://www.w3.org/2000/svg" xmlns:xlink="http://www.w3.org/1999/xlink" width="1659" zoomAndPan="magnify" viewBox="0 0 1244.25 250.499992" height="334" preserveAspectRatio="xMidYMid meet" version="1.0"><defs><clipPath id="fe92c4a341"><path d="M 446.269531 171.09375 L 621.421875 171.09375 L 621.421875 205.527344 L 446.269531 205.527344 Z M 446.269531 171.09375 " clip-rule="nonzero"/></clipPath></defs><path fill="#facf73" d="M 136.914062 1.03125 L 1122.96875 1.03125 C 1156.199219 1.03125 1187.140625 14.097656 1209.042969 37.332031 C 1230.945312 60.566406 1241.980469 92.089844 1239.722656 124.941406 C 1237.460938 157.792969 1222.105469 189.316406 1197.019531 212.550781 C 1171.929688 235.785156 1139.191406 248.851562 1105.960938 248.851562 L 119.9375 248.851562 C 86.707031 248.851562 55.765625 235.785156 33.863281 212.550781 C 11.960938 189.316406 0.921875 157.792969 3.183594 124.941406 C 5.441406 92.089844 20.796875 60.566406 45.886719 37.332031 C 70.945312 14.097656 103.710938 1.03125 136.914062 1.03125 " fill-opacity="1" fill-rule="nonzero"/><g clip-path="url(#fe92c4a341)"><path fill="#facf73" d="M 462.800781 171.125 L 621.417969 171.125 L 621.417969 188.917969 C 621.417969 198.039062 614.011719 205.445312 604.886719 205.445312 L 446.269531 205.445312 L 446.269531 187.652344 C 446.269531 178.527344 453.675781 171.125 462.800781 171.125 Z M 462.800781 171.125 " fill-opacity="1" fill-rule="nonzero"/></g></svg>