<svg xmlns="http://www.w3.org/2000/svg" xmlns:xlink="http://www.w3.org/1999/xlink" width="308" zoomAndPan="magnify" viewBox="0 0 230.87999 231" height="308" preserveAspectRatio="xMidYMid meet" version="1.0"><defs><clipPath id="57ea51bd5d"><path d="M 51.339844 22.007812 L 58.835938 22.007812 L 58.835938 29.503906 L 51.339844 29.503906 Z M 51.339844 22.007812 " clip-rule="nonzero"/></clipPath><clipPath id="dbd6a32ded"><path d="M 0 0.0585938 L 230.128906 0.0585938 L 230.128906 230.191406 L 0 230.191406 Z M 0 0.0585938 " clip-rule="nonzero"/></clipPath></defs><g clip-path="url(#57ea51bd5d)"><path fill="#000000" d="M 58.03125 22.542969 L 56.960938 22.542969 L 56.960938 22.273438 C 56.960938 22.199219 56.933594 22.136719 56.882812 22.085938 C 56.828125 22.03125 56.765625 22.007812 56.691406 22.007812 C 56.617188 22.007812 56.554688 22.03125 56.503906 22.085938 C 56.453125 22.136719 56.425781 22.199219 56.425781 22.273438 L 56.425781 22.542969 L 53.746094 22.542969 L 53.746094 22.273438 C 53.746094 22.199219 53.722656 22.136719 53.667969 22.085938 C 53.617188 22.03125 53.554688 22.007812 53.480469 22.007812 C 53.40625 22.007812 53.34375 22.03125 53.289062 22.085938 C 53.238281 22.136719 53.210938 22.199219 53.210938 22.273438 L 53.210938 22.542969 L 52.140625 22.542969 C 51.917969 22.542969 51.730469 22.621094 51.574219 22.777344 C 51.417969 22.933594 51.339844 23.125 51.339844 23.34375 L 51.339844 28.699219 C 51.339844 28.921875 51.417969 29.109375 51.574219 29.265625 C 51.730469 29.425781 51.917969 29.503906 52.140625 29.503906 L 58.03125 29.503906 C 58.253906 29.503906 58.441406 29.425781 58.597656 29.265625 C 58.757812 29.109375 58.835938 28.921875 58.835938 28.699219 L 58.835938 23.34375 C 58.835938 23.125 58.757812 22.933594 58.597656 22.777344 C 58.441406 22.621094 58.253906 22.542969 58.03125 22.542969 Z M 52.140625 23.078125 L 58.03125 23.078125 C 58.105469 23.078125 58.167969 23.101562 58.222656 23.15625 C 58.273438 23.207031 58.300781 23.269531 58.300781 23.34375 L 58.300781 24.148438 L 51.875 24.148438 L 51.875 23.34375 C 51.875 23.269531 51.898438 23.207031 51.953125 23.15625 C 52.003906 23.101562 52.066406 23.078125 52.140625 23.078125 Z M 58.03125 28.96875 L 52.140625 28.96875 C 52.066406 28.96875 52.003906 28.941406 51.953125 28.886719 C 51.898438 28.835938 51.875 28.773438 51.875 28.699219 L 51.875 24.683594 L 58.300781 24.683594 L 58.300781 28.699219 C 58.300781 28.773438 58.273438 28.835938 58.222656 28.886719 C 58.167969 28.941406 58.105469 28.96875 58.03125 28.96875 Z M 58.03125 28.96875 " fill-opacity="1" fill-rule="nonzero"/></g><path fill="#000000" d="M 56.25 25.550781 L 54.566406 26.996094 L 53.9375 26.367188 C 53.882812 26.320312 53.820312 26.292969 53.75 26.292969 C 53.675781 26.292969 53.613281 26.320312 53.5625 26.371094 C 53.507812 26.425781 53.484375 26.488281 53.484375 26.558594 C 53.480469 26.632812 53.507812 26.695312 53.558594 26.746094 L 54.359375 27.550781 C 54.476562 27.667969 54.597656 27.671875 54.722656 27.566406 L 56.597656 25.957031 C 56.65625 25.910156 56.691406 25.851562 56.699219 25.773438 C 56.707031 25.699219 56.683594 25.632812 56.636719 25.574219 C 56.585938 25.515625 56.523438 25.484375 56.449219 25.480469 C 56.371094 25.476562 56.304688 25.5 56.25 25.550781 Z M 56.25 25.550781 " fill-opacity="1" fill-rule="nonzero"/><g clip-path="url(#dbd6a32ded)"><path fill="#ffffff" d="M 205.597656 16.507812 L 172.703125 16.507812 L 172.703125 8.285156 C 172.703125 7.742188 172.652344 7.210938 172.546875 6.679688 C 172.441406 6.148438 172.285156 5.636719 172.078125 5.136719 C 171.871094 4.636719 171.617188 4.164062 171.316406 3.714844 C 171.015625 3.265625 170.675781 2.851562 170.292969 2.46875 C 169.914062 2.085938 169.496094 1.746094 169.046875 1.445312 C 168.597656 1.144531 168.125 0.894531 167.625 0.6875 C 167.128906 0.480469 166.613281 0.324219 166.082031 0.21875 C 165.554688 0.113281 165.019531 0.0585938 164.480469 0.0585938 C 163.9375 0.0585938 163.40625 0.113281 162.875 0.21875 C 162.34375 0.324219 161.832031 0.480469 161.332031 0.6875 C 160.832031 0.894531 160.359375 1.144531 159.910156 1.445312 C 159.460938 1.746094 159.046875 2.085938 158.664062 2.46875 C 158.28125 2.851562 157.941406 3.265625 157.640625 3.714844 C 157.339844 4.164062 157.089844 4.636719 156.882812 5.136719 C 156.675781 5.636719 156.519531 6.148438 156.414062 6.679688 C 156.308594 7.210938 156.253906 7.742188 156.253906 8.285156 L 156.253906 16.507812 L 74.015625 16.507812 L 74.015625 8.285156 C 74.015625 7.742188 73.964844 7.210938 73.859375 6.679688 C 73.753906 6.148438 73.597656 5.636719 73.390625 5.136719 C 73.183594 4.636719 72.929688 4.164062 72.628906 3.714844 C 72.328125 3.265625 71.988281 2.851562 71.605469 2.46875 C 71.226562 2.085938 70.808594 1.746094 70.359375 1.445312 C 69.910156 1.144531 69.4375 0.894531 68.9375 0.6875 C 68.441406 0.480469 67.925781 0.324219 67.394531 0.21875 C 66.867188 0.113281 66.332031 0.0585938 65.792969 0.0585938 C 65.25 0.0585938 64.71875 0.113281 64.1875 0.21875 C 63.65625 0.324219 63.144531 0.480469 62.644531 0.6875 C 62.144531 0.894531 61.671875 1.144531 61.222656 1.445312 C 60.773438 1.746094 60.359375 2.085938 59.976562 2.46875 C 59.59375 2.851562 59.253906 3.265625 58.953125 3.714844 C 58.652344 4.164062 58.398438 4.636719 58.195312 5.136719 C 57.988281 5.636719 57.832031 6.148438 57.726562 6.679688 C 57.621094 7.210938 57.566406 7.742188 57.566406 8.285156 L 57.566406 16.507812 L 24.671875 16.507812 C 23.863281 16.507812 23.058594 16.546875 22.253906 16.625 C 21.449219 16.707031 20.652344 16.824219 19.859375 16.980469 C 19.066406 17.140625 18.285156 17.335938 17.511719 17.570312 C 16.738281 17.804688 15.976562 18.078125 15.230469 18.386719 C 14.484375 18.695312 13.753906 19.039062 13.042969 19.421875 C 12.328125 19.800781 11.636719 20.21875 10.964844 20.664062 C 10.292969 21.113281 9.644531 21.59375 9.019531 22.109375 C 8.394531 22.621094 7.796875 23.164062 7.226562 23.734375 C 6.65625 24.304688 6.113281 24.902344 5.601562 25.527344 C 5.085938 26.152344 4.605469 26.800781 4.15625 27.472656 C 3.710938 28.144531 3.292969 28.835938 2.914062 29.550781 C 2.53125 30.261719 2.1875 30.992188 1.878906 31.738281 C 1.570312 32.484375 1.296875 33.246094 1.0625 34.019531 C 0.828125 34.792969 0.632812 35.574219 0.472656 36.367188 C 0.316406 37.160156 0.199219 37.957031 0.117188 38.761719 C 0.0390625 39.566406 0 40.371094 0 41.179688 L 0 205.660156 C 0 206.46875 0.0390625 207.273438 0.117188 208.078125 C 0.199219 208.882812 0.316406 209.679688 0.472656 210.472656 C 0.632812 211.265625 0.828125 212.046875 1.0625 212.820312 C 1.296875 213.59375 1.570312 214.355469 1.878906 215.101562 C 2.1875 215.847656 2.53125 216.578125 2.914062 217.289062 C 3.292969 218 3.710938 218.695312 4.15625 219.367188 C 4.605469 220.039062 5.085938 220.6875 5.601562 221.3125 C 6.113281 221.933594 6.65625 222.535156 7.226562 223.105469 C 7.796875 223.675781 8.394531 224.21875 9.019531 224.730469 C 9.644531 225.242188 10.292969 225.722656 10.964844 226.171875 C 11.636719 226.621094 12.328125 227.035156 13.042969 227.417969 C 13.753906 227.796875 14.484375 228.144531 15.230469 228.453125 C 15.976562 228.761719 16.738281 229.035156 17.511719 229.269531 C 18.285156 229.503906 19.066406 229.699219 19.859375 229.855469 C 20.652344 230.015625 21.449219 230.132812 22.253906 230.210938 C 23.058594 230.292969 23.863281 230.332031 24.671875 230.332031 L 205.597656 230.332031 C 206.40625 230.332031 207.214844 230.292969 208.015625 230.210938 C 208.820312 230.132812 209.621094 230.015625 210.414062 229.855469 C 211.203125 229.699219 211.988281 229.503906 212.761719 229.269531 C 213.535156 229.035156 214.292969 228.761719 215.039062 228.453125 C 215.785156 228.144531 216.515625 227.796875 217.230469 227.417969 C 217.941406 227.035156 218.632812 226.621094 219.304688 226.171875 C 219.976562 225.722656 220.625 225.242188 221.25 224.730469 C 221.875 224.21875 222.472656 223.675781 223.042969 223.105469 C 223.617188 222.535156 224.15625 221.933594 224.671875 221.3125 C 225.183594 220.6875 225.664062 220.039062 226.113281 219.367188 C 226.5625 218.695312 226.976562 218 227.359375 217.289062 C 227.738281 216.578125 228.082031 215.847656 228.394531 215.101562 C 228.703125 214.355469 228.972656 213.59375 229.207031 212.820312 C 229.441406 212.046875 229.640625 211.265625 229.796875 210.472656 C 229.953125 209.679688 230.074219 208.882812 230.152344 208.078125 C 230.230469 207.273438 230.269531 206.46875 230.269531 205.660156 L 230.269531 41.179688 C 230.269531 40.371094 230.230469 39.566406 230.152344 38.761719 C 230.074219 37.957031 229.953125 37.160156 229.796875 36.367188 C 229.640625 35.574219 229.441406 34.792969 229.207031 34.019531 C 228.972656 33.246094 228.703125 32.484375 228.394531 31.738281 C 228.082031 30.992188 227.738281 30.261719 227.359375 29.550781 C 226.976562 28.835938 226.5625 28.144531 226.113281 27.472656 C 225.664062 26.800781 225.183594 26.152344 224.671875 25.527344 C 224.15625 24.902344 223.617188 24.304688 223.042969 23.734375 C 222.472656 23.164062 221.875 22.621094 221.25 22.109375 C 220.625 21.59375 219.976562 21.113281 219.304688 20.664062 C 218.632812 20.21875 217.941406 19.800781 217.230469 19.421875 C 216.515625 19.039062 215.785156 18.695312 215.039062 18.386719 C 214.292969 18.078125 213.535156 17.804688 212.761719 17.570312 C 211.988281 17.335938 211.203125 17.140625 210.414062 16.980469 C 209.621094 16.824219 208.820312 16.707031 208.015625 16.625 C 207.214844 16.546875 206.40625 16.507812 205.597656 16.507812 Z M 24.671875 32.957031 L 205.597656 32.957031 C 206.140625 32.957031 206.675781 33.007812 207.203125 33.113281 C 207.734375 33.21875 208.246094 33.375 208.746094 33.582031 C 209.246094 33.789062 209.71875 34.042969 210.167969 34.34375 C 210.617188 34.640625 211.03125 34.984375 211.414062 35.363281 C 211.796875 35.746094 212.136719 36.160156 212.4375 36.609375 C 212.738281 37.058594 212.992188 37.535156 213.195312 38.03125 C 213.402344 38.53125 213.558594 39.046875 213.664062 39.574219 C 213.769531 40.105469 213.824219 40.640625 213.824219 41.179688 L 213.824219 65.851562 L 16.449219 65.851562 L 16.449219 41.179688 C 16.449219 40.640625 16.5 40.105469 16.605469 39.574219 C 16.710938 39.046875 16.867188 38.53125 17.074219 38.03125 C 17.28125 37.535156 17.535156 37.058594 17.832031 36.609375 C 18.132812 36.160156 18.476562 35.746094 18.855469 35.363281 C 19.238281 34.984375 19.652344 34.640625 20.101562 34.34375 C 20.550781 34.042969 21.027344 33.789062 21.523438 33.582031 C 22.023438 33.375 22.539062 33.21875 23.066406 33.113281 C 23.597656 33.007812 24.132812 32.957031 24.671875 32.957031 Z M 205.597656 213.882812 L 24.671875 213.882812 C 24.132812 213.882812 23.597656 213.832031 23.066406 213.726562 C 22.539062 213.621094 22.023438 213.464844 21.523438 213.257812 C 21.027344 213.050781 20.550781 212.796875 20.101562 212.496094 C 19.652344 212.195312 19.238281 211.855469 18.855469 211.472656 C 18.476562 211.09375 18.132812 210.675781 17.832031 210.226562 C 17.535156 209.777344 17.28125 209.304688 17.074219 208.804688 C 16.867188 208.308594 16.710938 207.792969 16.605469 207.261719 C 16.5 206.734375 16.449219 206.199219 16.449219 205.660156 L 16.449219 82.300781 L 213.824219 82.300781 L 213.824219 205.660156 C 213.824219 206.199219 213.769531 206.734375 213.664062 207.261719 C 213.558594 207.792969 213.402344 208.308594 213.195312 208.804688 C 212.992188 209.304688 212.738281 209.777344 212.4375 210.226562 C 212.136719 210.675781 211.796875 211.09375 211.414062 211.472656 C 211.03125 211.855469 210.617188 212.195312 210.167969 212.496094 C 209.71875 212.796875 209.246094 213.050781 208.746094 213.257812 C 208.246094 213.464844 207.734375 213.621094 207.203125 213.726562 C 206.675781 213.832031 206.140625 213.882812 205.597656 213.882812 Z M 205.597656 213.882812 " fill-opacity="1" fill-rule="nonzero"/></g><path fill="#ffffff" d="M 150.910156 108.953125 L 99.097656 153.363281 L 79.804688 134.078125 C 79.421875 133.707031 79.003906 133.375 78.554688 133.085938 C 78.109375 132.796875 77.636719 132.550781 77.140625 132.355469 C 76.644531 132.15625 76.132812 132.007812 75.609375 131.910156 C 75.082031 131.8125 74.554688 131.765625 74.019531 131.769531 C 73.488281 131.773438 72.957031 131.832031 72.433594 131.9375 C 71.914062 132.046875 71.40625 132.203125 70.910156 132.410156 C 70.417969 132.617188 69.953125 132.867188 69.507812 133.164062 C 69.066406 133.460938 68.65625 133.800781 68.277344 134.179688 C 67.898438 134.554688 67.5625 134.964844 67.265625 135.410156 C 66.964844 135.851562 66.714844 136.320312 66.507812 136.8125 C 66.300781 137.304688 66.144531 137.8125 66.035156 138.335938 C 65.929688 138.859375 65.875 139.386719 65.867188 139.921875 C 65.863281 140.457031 65.910156 140.984375 66.007812 141.511719 C 66.109375 142.035156 66.257812 142.546875 66.453125 143.039062 C 66.652344 143.535156 66.894531 144.007812 67.183594 144.457031 C 67.476562 144.90625 67.804688 145.324219 68.175781 145.707031 L 92.847656 170.378906 C 93.210938 170.742188 93.605469 171.066406 94.027344 171.355469 C 94.453125 171.644531 94.898438 171.890625 95.371094 172.097656 C 95.839844 172.300781 96.324219 172.460938 96.824219 172.574219 C 97.324219 172.691406 97.832031 172.757812 98.34375 172.777344 C 98.859375 172.796875 99.367188 172.769531 99.875 172.691406 C 100.382812 172.617188 100.878906 172.496094 101.363281 172.324219 C 101.847656 172.15625 102.3125 171.945312 102.757812 171.691406 C 103.203125 171.433594 103.617188 171.140625 104.007812 170.804688 L 161.578125 121.460938 C 162.007812 121.117188 162.402344 120.734375 162.761719 120.3125 C 163.117188 119.886719 163.425781 119.433594 163.691406 118.949219 C 163.953125 118.460938 164.167969 117.953125 164.328125 117.425781 C 164.492188 116.898438 164.597656 116.359375 164.652344 115.808594 C 164.703125 115.257812 164.703125 114.707031 164.644531 114.15625 C 164.585938 113.605469 164.472656 113.066406 164.308594 112.539062 C 164.140625 112.011719 163.921875 111.507812 163.65625 111.023438 C 163.386719 110.542969 163.070312 110.089844 162.710938 109.667969 C 162.351562 109.25 161.953125 108.871094 161.519531 108.53125 C 161.082031 108.191406 160.617188 107.898438 160.121094 107.652344 C 159.625 107.40625 159.109375 107.210938 158.574219 107.070312 C 158.042969 106.929688 157.496094 106.839844 156.945312 106.808594 C 156.394531 106.777344 155.84375 106.800781 155.296875 106.878906 C 154.75 106.957031 154.214844 107.089844 153.695312 107.277344 C 153.171875 107.460938 152.675781 107.699219 152.203125 107.984375 C 151.730469 108.273438 151.292969 108.601562 150.886719 108.976562 Z M 150.910156 108.953125 " fill-opacity="1" fill-rule="nonzero"/></svg>